<svg xmlns="http://www.w3.org/2000/svg" version="1.0" viewBox="0 0 32 32"><g fill="#fff"><path d="M3.3 11.7l-.1 8.7 3.7 3.8c6.2 6.1 11.4 6.3 17.8.4l3.7-3.4.2-9.1.2-9.1-2.7.7c-3.3.8-16.8.9-20.2 0l-2.5-.6-.1 8.6zM26.5 13c-.1 7.1-1.3 9.8-5.6 12.4-3.6 2.1-6.5 2-10.4-.4-4.2-2.6-4.8-4.1-4.9-12l-.1-6.6h21V13z"/><path d="M9.4 15.6c.3.9.6 1.8.6 2 0 .2.9.4 2.1.4 1.5 0 1.9-.4 1.5-1.6-.3-.9-.6-1.8-.6-2 0-.2-.9-.4-2.1-.4-1.5 0-1.9.4-1.5 1.6zM18.6 15.6c-.9 2.3-.8 2.4 1.3 2.4 1.6 0 3.1-1.8 3.1-3.6 0-1.2-3.9-.2-4.4 1.2zM14.3 21.7c1.6 1.6 1.8 1.6 3.4 0 1.6-1.6 1.5-1.7-1.7-1.7s-3.3.1-1.7 1.7z"/></g></svg>